<svg width="800" height="800" viewBox="0 0 200 200" xmlns="http://www.w3.org/2000/svg" xmlns:xlink="http://www.w3.org/1999/xlink" overflow="hidden"><g id="SVGRepo_bgCarrier" stroke-width="0"></g><g id="SVGRepo_tracerCarrier" stroke-linecap="round" stroke-linejoin="round"></g><g id="SVGRepo_iconCarrier"><line x1="100" y1="101.93" x2="100" y2="149.93" stroke="#0F0F0F" stroke-width="8" stroke-miterlimit="10" fill="none"/><line x1="56" y1="75.5" x2="100" y2="102.49" stroke="#0F0F0F" stroke-width="7.94" stroke-miterlimit="10" fill="none"/><line x1="144" y1="75.5" x2="100" y2="102.49" stroke="#0F0F0F" stroke-width="8" stroke-miterlimit="10" fill="none"/><path d="M144 75.5 144 124.28 100 151.6 56 124.61 56 75.5 99.5 48.4 144 75.5Z" stroke="#0F0F0F" stroke-width="8" stroke-miterlimit="10" fill="none"/><path d="M187 141 187 177C187 182.523 182.523 187 177 187L141 187" stroke="#0F0F0F" stroke-width="8" stroke-miterlimit="10" fill="none"/><path d="M141 13 177 13C182.523 13 187 17.4772 187 23L187 59" stroke="#0F0F0F" stroke-width="8" stroke-miterlimit="10" fill="none"/><path d="M13 59 13 23C13 17.4772 17.4772 13 23 13L59 13" stroke="#0F0F0F" stroke-width="8" stroke-miterlimit="10" fill="none"/><path d="M59 187 23 187C17.4772 187 13 182.523 13 177L13 141" stroke="#0F0F0F" stroke-width="8" stroke-miterlimit="10" fill="none"/></g></svg>