<svg width="800" height="800" viewBox="0 0 24 24" xmlns="http://www.w3.org/2000/svg" xmlns:xlink="http://www.w3.org/1999/xlink" fill="none" overflow="hidden"><style>
.MsftOfcResponsive_Stroke_fffcf0 {
 stroke:#FFFCF0; 
}
</style>
<path d="M2 11.5 2 12.5C2 15.7875 2 17.4312 2.90796 18.5376 3.07418 18.7401 3.25989 18.9258 3.46243 19.092 4.56878 20 6.21252 20 9.5 20 12.7875 20 14.4312 20 15.5376 19.092 15.7401 18.9258 15.9258 18.7401 16.092 18.5376 17 17.4312 17 15.7875 17 12.5L17 11.5C17 8.21252 17 6.56878 16.092 5.46243 15.9258 5.25989 15.7401 5.07418 15.5376 4.90796 14.4312 4 12.7875 4 9.5 4 6.21252 4 4.56878 4 3.46243 4.90796 3.25989 5.07418 3.07418 5.25989 2.90796 5.46243 2.48014 5.98373 2.2539 6.62434 2.13427 7.5" class="MsftOfcResponsive_Stroke_fffcf0" stroke="#FFFCF0" stroke-width="1.49998" stroke-linecap="round"/><path d="M17 9.50019 17.6584 9.17101C19.6042 8.19807 20.5772 7.7116 21.2886 8.15127 22 8.59094 22 9.67872 22 11.8543L22 12.1461C22 14.3217 22 15.4094 21.2886 15.8491 20.5772 16.2888 19.6042 15.8023 17.6584 14.8294L17 14.5002 17 9.50019Z" class="MsftOfcResponsive_Stroke_fffcf0" stroke="#FFFCF0" stroke-width="1.49998"/></svg>