<svg width="800" height="800" viewBox="0 0 24 24" xmlns="http://www.w3.org/2000/svg" xmlns:xlink="http://www.w3.org/1999/xlink" fill="none" overflow="hidden"><g id="SVGRepo_bgCarrier" stroke-width="0"></g><g id="SVGRepo_tracerCarrier" stroke-linecap="round" stroke-linejoin="round"></g><g id="SVGRepo_iconCarrier"><path d="M20.5 7.27783 12 12.0001M12 12.0001 3.49997 7.27783M12 12.0001 12 21.5001M14 20.889 12.777 21.5684C12.4934 21.726 12.3516 21.8047 12.2015 21.8356 12.0685 21.863 11.9315 21.863 11.7986 21.8356 11.6484 21.8047 11.5066 21.726 11.223 21.5684L3.82297 17.4573C3.52346 17.2909 3.37368 17.2077 3.26463 17.0893 3.16816 16.9847 3.09515 16.8606 3.05048 16.7254 3 16.5726 3 16.4013 3 16.0586L3 7.94153C3 7.59889 3 7.42757 3.05048 7.27477 3.09515 7.13959 3.16816 7.01551 3.26463 6.91082 3.37368 6.79248 3.52345 6.70928 3.82297 6.54288L11.223 2.43177C11.5066 2.27421 11.6484 2.19543 11.7986 2.16454 11.9315 2.13721 12.0685 2.13721 12.2015 2.16454 12.3516 2.19543 12.4934 2.27421 12.777 2.43177L20.177 6.54288C20.4766 6.70928 20.6263 6.79248 20.7354 6.91082 20.8318 7.01551 20.9049 7.13959 20.9495 7.27477 21 7.42757 21 7.59889 21 7.94153L21 12.5001M7.5 4.50008 16.5 9.50008M16 18.0001 18 20.0001 22 16.0001" stroke="#000000" stroke-width="1.128" stroke-linecap="round" stroke-linejoin="round"/></g></svg>