<svg width="800" height="800" viewBox="-56.32 -56.32 624.64 624.64" xmlns="http://www.w3.org/2000/svg" xmlns:xlink="http://www.w3.org/1999/xlink" id="Layer_1" stroke="#000000" stroke-width="0.00512" xml:space="preserve" overflow="hidden"><g id="SVGRepo_bgCarrier" stroke-width="0"></g><g id="SVGRepo_tracerCarrier" stroke-linecap="round" stroke-linejoin="round"></g><g id="SVGRepo_iconCarrier"><g><g><path d="M392.075 422.027 119.925 422.027C114.402 422.027 109.925 417.549 109.925 412.027L109.925 238.757C109.925 233.235 114.402 228.757 119.925 228.757L392.075 228.757C397.598 228.757 402.075 233.235 402.075 238.757L402.075 412.027C402.075 417.55 397.598 422.027 392.075 422.027ZM129.925 402.027 382.075 402.027 382.075 248.757 129.925 248.757 129.925 402.027Z"/></g><g><g><line x1="256.971" y1="238.275" x2="256.971" y2="155.906"/><path d="M256.971 248.275C251.448 248.275 246.971 243.797 246.971 238.275L246.971 155.906C246.971 150.384 251.448 145.906 256.971 145.906 262.494 145.906 266.971 150.384 266.971 155.906L266.971 238.275C266.971 243.798 262.494 248.275 256.971 248.275Z"/></g><g><path d="M312.76 155.906 201.18 155.906 212.245 50.818 301.696 50.818Z"/><path d="M312.78 165.906C312.773 165.906 312.767 165.906 312.76 165.906L201.18 165.906C198.346 165.906 195.644 164.703 193.748 162.596 191.852 160.489 190.938 157.677 191.235 154.859L202.3 49.771C202.836 44.681 207.127 40.818 212.245 40.818L301.696 40.818C306.814 40.818 311.105 44.681 311.641 49.771L322.637 154.209C322.731 154.76 322.781 155.327 322.781 155.905 322.78 161.429 318.303 165.906 312.78 165.906ZM212.289 145.906 301.652 145.906 292.694 60.818 221.248 60.818 212.289 145.906Z"/></g></g><g><path d="M284.632 199.248C279.109 199.248 274.632 194.77 274.632 189.248L274.632 155.906C274.632 150.384 279.109 145.906 284.632 145.906 290.155 145.906 294.632 150.384 294.632 155.906L294.632 189.248C294.632 194.771 290.155 199.248 284.632 199.248Z"/></g><g><path d="M119.925 471.182C114.402 471.182 109.925 466.704 109.925 461.182L109.925 412.028C109.925 406.506 114.402 402.028 119.925 402.028 125.448 402.028 129.925 406.506 129.925 412.028L129.925 461.182C129.925 466.704 125.448 471.182 119.925 471.182Z"/></g><g><path d="M392.075 471.182C386.552 471.182 382.075 466.704 382.075 461.182L382.075 412.028C382.075 406.506 386.552 402.028 392.075 402.028 397.598 402.028 402.075 406.506 402.075 412.028L402.075 461.182C402.075 466.704 397.598 471.182 392.075 471.182Z"/></g><g><path d="M284.632 335.393 220.351 335.393C214.828 335.393 210.351 330.915 210.351 325.393 210.351 319.871 214.828 315.393 220.351 315.393L284.632 315.393C290.155 315.393 294.632 319.871 294.632 325.393 294.632 330.915 290.155 335.393 284.632 335.393Z"/></g><g><rect x="119.925" y="238.758" width="272.15" height="173.27" fill="#FFFFFF"/><path d="M392.075 422.027 119.925 422.027C114.402 422.027 109.925 417.549 109.925 412.027L109.925 238.757C109.925 233.235 114.402 228.757 119.925 228.757L392.075 228.757C397.598 228.757 402.075 233.235 402.075 238.757L402.075 412.027C402.075 417.55 397.598 422.027 392.075 422.027ZM129.925 402.027 382.075 402.027 382.075 248.757 129.925 248.757 129.925 402.027Z"/></g><g><g><line x1="256.971" y1="238.275" x2="256.971" y2="155.906"/><path d="M256.971 248.275C251.448 248.275 246.971 243.797 246.971 238.275L246.971 155.906C246.971 150.384 251.448 145.906 256.971 145.906 262.494 145.906 266.971 150.384 266.971 155.906L266.971 238.275C266.971 243.798 262.494 248.275 256.971 248.275Z"/></g><g><path d="M312.76 155.906 201.18 155.906 212.245 50.818 301.696 50.818Z"/><path d="M312.78 165.906C312.773 165.906 312.767 165.906 312.76 165.906L201.18 165.906C198.346 165.906 195.644 164.703 193.748 162.596 191.852 160.489 190.938 157.677 191.235 154.859L202.3 49.771C202.836 44.681 207.127 40.818 212.245 40.818L301.696 40.818C306.814 40.818 311.105 44.681 311.641 49.771L322.637 154.209C322.731 154.76 322.781 155.327 322.781 155.905 322.78 161.429 318.303 165.906 312.78 165.906ZM212.289 145.906 301.652 145.906 292.694 60.818 221.248 60.818 212.289 145.906Z"/></g></g><g><path d="M284.632 199.248C279.109 199.248 274.632 194.77 274.632 189.248L274.632 155.906C274.632 150.384 279.109 145.906 284.632 145.906 290.155 145.906 294.632 150.384 294.632 155.906L294.632 189.248C294.632 194.771 290.155 199.248 284.632 199.248Z"/></g><g><path d="M119.925 471.182C114.402 471.182 109.925 466.704 109.925 461.182L109.925 412.028C109.925 406.506 114.402 402.028 119.925 402.028 125.448 402.028 129.925 406.506 129.925 412.028L129.925 461.182C129.925 466.704 125.448 471.182 119.925 471.182Z"/></g><g><path d="M392.075 471.182C386.552 471.182 382.075 466.704 382.075 461.182L382.075 412.028C382.075 406.506 386.552 402.028 392.075 402.028 397.598 402.028 402.075 406.506 402.075 412.028L402.075 461.182C402.075 466.704 397.598 471.182 392.075 471.182Z"/></g><g><path d="M284.632 335.393 220.351 335.393C214.828 335.393 210.351 330.915 210.351 325.393 210.351 319.871 214.828 315.393 220.351 315.393L284.632 315.393C290.155 315.393 294.632 319.871 294.632 325.393 294.632 330.915 290.155 335.393 284.632 335.393Z"/></g></g></g></svg>