<svg width="800" height="800" viewBox="0 0 24 24" xmlns="http://www.w3.org/2000/svg" xmlns:xlink="http://www.w3.org/1999/xlink" fill="none" overflow="hidden"><style>
.MsftOfcThm_Text1_Stroke_v2 {
 stroke:#000000; 
}
</style>
<path d="M22 5.85964C22 5.06508 21.2094 4.33374 19.883 3.75279 18.7083 3.23834 17.5 4.21963 17.5 5.50199L17.5 8.71946M22 5.85964C22 7.05487 20.2111 8.10705 17.5 8.71946M22 5.85964 22 8.99982M2 5.85964C2 5.06508 2.79055 4.33374 4.11705 3.75279 5.29169 3.23834 6.5 4.21963 6.5 5.50199L6.5 8.71946M2 5.85964 2 18.5761C2 20.467 6.47715 21.9998 12 21.9998 17.5228 21.9998 22 20.467 22 18.5761L22 12.9998M2 5.85964C2 7.05487 3.78889 8.10705 6.5 8.71946M6.5 8.71946C8.0779 9.07589 9.96818 9.28335 12 9.28335 14.0318 9.28335 15.9221 9.07589 17.5 8.71946" class="MsftOfcThm_Text1_Stroke_v2" stroke="#000000" stroke-width="1.49998" stroke-linecap="round"/><path d="M19.5 13C19.5 13.8284 18.8284 14.5 18 14.5 17.1716 14.5 16.5 13.8284 16.5 13 16.5 12.1716 17.1716 11.5 18 11.5 18.8284 11.5 19.5 12.1716 19.5 13Z" class="MsftOfcThm_Text1_Stroke_v2" stroke="#000000" stroke-width="1.49998"/><path d="M21 20 18.5044 17.8514C17.6996 17.1586 16.501 17.0896 15.6152 17.6851L15.3843 17.8403C14.7687 18.2542 13.9312 18.1848 13.3991 17.6758L10.0781 14.4989C9.41518 13.8648 8.35189 13.8309 7.64639 14.4214L6.29032 15.5565 2.5 19.1035" class="MsftOfcThm_Text1_Stroke_v2" stroke="#000000" stroke-width="1.49998" stroke-linecap="round"/></svg>