<svg width="800" height="800" viewBox="0 0 24 24" xmlns="http://www.w3.org/2000/svg" xmlns:xlink="http://www.w3.org/1999/xlink" fill="none" overflow="hidden"><style>
.MsftOfcThm_Text1_Stroke_v2 {
 stroke:#000000; 
}
</style>
<path d="M22 22 2 22" class="MsftOfcThm_Text1_Stroke_v2" stroke="#000000" stroke-width="1.5" stroke-linecap="round"/><path d="M21 22 21 13M11.0044 5C11.0223 3.76022 11.1143 3.05733 11.5858 2.58579 12.1716 2 13.1144 2 15 2L17 2C18.8857 2 19.8285 2 20.4143 2.58579 21 3.17157 21 4.11438 21 6L21 9" class="MsftOfcThm_Text1_Stroke_v2" stroke="#000000" stroke-width="1.5" stroke-linecap="round"/><path d="M15 22 15 16M3 22 3 13M3 9C3 7.11438 3 6.17157 3.58579 5.58579 4.17157 5 5.11438 5 7 5L11 5C12.8856 5 13.8284 5 14.4142 5.58579 15 6.17157 15 7.11438 15 9L15 12" class="MsftOfcThm_Text1_Stroke_v2" stroke="#000000" stroke-width="1.5" stroke-linecap="round"/><path d="M9 22 9 19" class="MsftOfcThm_Text1_Stroke_v2" stroke="#000000" stroke-width="1.5" stroke-linecap="round"/><path d="M6 8 12 8" class="MsftOfcThm_Text1_Stroke_v2" stroke="#000000" stroke-width="1.5" stroke-linecap="round"/><path d="M6 11 7 11M12 11 9.5 11" class="MsftOfcThm_Text1_Stroke_v2" stroke="#000000" stroke-width="1.5" stroke-linecap="round"/><path d="M6 14 12 14" class="MsftOfcThm_Text1_Stroke_v2" stroke="#000000" stroke-width="1.5" stroke-linecap="round"/></svg>