<svg width="800" height="800" viewBox="0 0 24 24" xmlns="http://www.w3.org/2000/svg" xmlns:xlink="http://www.w3.org/1999/xlink" id="Layer_1" overflow="hidden"><g id="SVGRepo_bgCarrier" stroke-width="0"></g><g id="SVGRepo_tracerCarrier" stroke-linecap="round" stroke-linejoin="round"></g><g id="SVGRepo_iconCarrier"><defs></defs><path d="M8.53 19C5 21.83 2.2 23.31 1.45 22.55 0.7 21.79 2.17 19 5 15.47 6.56748 13.5584 8.23655 11.7324 10 10 10.68 9.31 11.36 8.66 12 8 13.2 6.89 14.37 5.87 15.47 5 19 2.17 21.8 0.69 22.55 1.45 23.3 2.21 21.83 5 19 8.53" stroke="#FFFCF0" stroke-width="1.44" stroke-miterlimit="10" fill="none"/><path d="M15.47 19C19 21.82 21.8 23.3 22.55 22.54 23.3 21.78 21.83 19 19 15.47 18.12 14.37 17.1 13.2 16 12 15.37 11.33 14.72 10.65 14 10 13.28 9.35 12.64 8.66 12 8 10.8 6.89 9.63 5.87 8.53 5 5 2.17 2.2 0.69 1.45 1.45 0.7 2.21 2.17 5 5 8.53" stroke="#FFFCF0" stroke-width="1.44" stroke-miterlimit="10" fill="none"/><circle cx="12" cy="12" r="7.82" stroke="#FFFCF0" stroke-width="1.44" stroke-miterlimit="10" fill="none"/></g></svg>